<svg width="128" height="128" viewBox="0 0 128 128" fill="none" xmlns="http://www.w3.org/2000/svg">
  <defs>
    <linearGradient id="shieldGrad" x1="20" y1="16" x2="108" y2="112" gradientUnits="userSpaceOnUse">
      <stop offset="0" stop-color="#1F9E6D"/>
      <stop offset="1" stop-color="#1478C8"/>
    </linearGradient>
  </defs>
  <path d="M64 10L108 28V62C108 86 90.5 107.5 64 118C37.5 107.5 20 86 20 62V28L64 10Z" fill="url(#shieldGrad)"/>
  <path d="M64 20L99 34V60C99 80 84.5 97 64 105C43.5 97 29 80 29 60V34L64 20Z" fill="#ffffff" fill-opacity="0.18"/>
  <path d="M50.5 42C47 42 44 45 44 48.5C44 52 47 55 50.5 55C51.7 55 52.9 54.6 53.8 53.9L60.6 60.7L53.8 67.5C52.9 66.8 51.7 66.4 50.5 66.4C47 66.4 44 69.4 44 73C44 76.6 47 79.6 50.5 79.6C54.1 79.6 57 76.6 57 73C57 71.8 56.6 70.6 55.9 69.6L62.8 62.8L66.8 66.8L72.1 61.5L68 57.5L74.9 50.6C75.9 51.3 77.1 51.7 78.3 51.7C81.8 51.7 84.8 48.8 84.8 45.2C84.8 41.6 81.8 38.7 78.3 38.7C74.7 38.7 71.7 41.6 71.7 45.2C71.7 46.4 72.1 47.6 72.8 48.6L65.9 55.5L61.9 51.5L56.6 56.8L60.6 60.8L53.7 67.7C52.8 67 51.6 66.6 50.5 66.6" fill="#ffffff"/>
  <path d="M75 72L86 55H76.5L83.5 42L70 60H78L69 72H75Z" fill="#F4B400"/>
</svg>
